PathFileType	4	(X/Y/Z)	c:/Users/goper/Files/vsCode/490R/osim_files/C15/C15_Fast_03.trc
DataRate	CameraRate	NumFrames	NumMarkers	Units                	OrigDataRate	OrigDataStartFrame	OrigNumFrames
250.00	250.00	7	36	mm	250.0	862	2296
                Frame#	Time	LPSIS			LASIS			LTH1			LTH2			LTH3			LTH4			LLFE			LMFE			LSH1			LSH2			LSH3			LSH4			LLMAL			LMMAL			LCAL			LMTP5			LTOE			LMTP1			RPSIS			RASIS			RTH1			RTH2			RTH3			RTH4			RLFE			RMFE			RSH1			RSH2			RSH3			RSH4			RLMAL			RMMAL			RCAL			RMTP1			RTOE			RMTP5		
		X1	Y1	Z1	X2	Y2	Z2	X3	Y3	Z3	X4	Y4	Z4	X5	Y5	Z5	X6	Y6	Z6	X7	Y7	Z7	X8	Y8	Z8	X9	Y9	Z9	X10	Y10	Z10	X11	Y11	Z11	X12	Y12	Z12	X13	Y13	Z13	X14	Y14	Z14	X15	Y15	Z15	X16	Y16	Z16	X17	Y17	Z17	X18	Y18	Z18	X19	Y19	Z19	X20	Y20	Z20	X21	Y21	Z21	X22	Y22	Z22	X23	Y23	Z23	X24	Y24	Z24	X25	Y25	Z25	X26	Y26	Z26	X27	Y27	Z27	X28	Y28	Z28	X29	Y29	Z29	X30	Y30	Z30	X31	Y31	Z31	X32	Y32	Z32	X33	Y33	Z33	X34	Y34	Z34	X35	Y35	Z35	X36	Y36	Z36

862	3.44400	1159.03284	1012.53870	330.52350	998.31689	984.16516	408.19000	1140.87146	602.12787	452.91809	1146.65210	555.90247	436.06195	1089.71521	603.58722	448.90833	1096.96252	560.00806	438.14975	1151.53540	482.75458	417.83313	1145.25586	468.63138	300.74121	1244.90063	393.93225	424.42590	1255.40381	350.08618	428.21429	1185.83093	371.97858	426.65305	1204.46106	330.38239	429.50430	1302.76453	90.43955	353.89853	1279.70239	116.55714	265.55057	1369.50220	71.40400	310.95837	1190.97949	33.05005	376.54001	1133.28320	52.85135	314.03336	1176.15833	29.58216	255.36659	1148.48608	1008.31287	209.87421	988.23065	984.64795	159.10841	929.95941	629.79913	97.90179	910.48492	588.47913	108.31952	876.04120	652.48560	113.96180	862.50330	606.19995	117.95251	869.51331	509.35291	137.55959	880.21497	484.66489	251.89436	928.88080	390.88547	113.83529	919.20801	348.40320	108.21131	865.73004	398.53195	108.84303	867.18811	352.54224	107.18848	835.37250	88.94200	156.85997	805.54877	118.90665	241.35730	884.86121	49.73626	209.18579	683.84576	78.35196	234.54152	657.38348	106.77348	180.18816	711.12396	55.58443	122.83927
863	3.44800	1154.68005	1011.93622	330.02176	993.64618	983.74725	408.02411	1136.31921	600.85944	452.54120	1143.95776	555.86121	436.06766	1086.61328	603.18036	448.97308	1094.33594	559.65198	438.23148	1149.18188	482.65961	417.90128	1143.16614	469.59729	299.88101	1243.06653	394.37051	424.28232	1254.11133	350.92639	427.91516	1184.08044	371.92734	426.69821	1204.29150	331.45938	429.71597	1304.13916	92.47406	354.52734	1279.20154	117.01904	265.50949	1369.38501	72.56483	310.78699	1190.93848	32.85982	376.62857	1133.16443	52.81750	314.06357	1176.10034	29.68363	255.27853	1143.20374	1007.44958	209.44749	982.56671	983.94287	159.39905	926.57764	628.35449	97.77888	907.28290	586.86139	107.96005	872.53400	650.67102	114.49842	859.36639	604.38153	117.90081	865.85468	507.73099	137.70496	877.36230	482.64484	252.03746	923.30292	388.60895	112.61590	911.92950	346.05487	108.19019	861.16217	398.10806	110.27444	858.10138	353.30960	108.03448	821.38770	88.62919	157.30853	793.70618	120.18295	242.98718	869.95056	47.83576	209.35637	669.54633	81.95172	235.44321	643.87305	111.45753	181.12885	696.02551	58.80444	123.67608
864	3.45200	1149.39685	1010.94080	329.61322	989.04022	983.16040	407.97952	1135.96436	603.17047	454.58594	1141.24878	555.83722	436.03452	1084.17944	603.15497	449.22968	1091.67041	559.39813	438.52808	1146.56506	482.69635	417.86023	1140.44373	469.43927	299.90585	1241.19543	394.78961	424.13858	1252.48474	351.41049	427.81393	1182.27319	371.88086	426.74338	1201.68359	330.73398	429.53671	1303.79089	93.05983	354.42984	1278.71960	117.40856	265.52432	1369.08911	73.42540	310.72183	1190.88989	32.82928	376.63562	1133.04773	52.79438	314.13126	1176.03809	29.77490	255.19893	1137.90771	1006.56281	209.01434	977.07037	983.33722	159.37502	923.09637	626.86621	97.58989	906.73706	586.37317	104.03287	869.02533	648.59271	114.86829	856.13336	602.54944	117.67445	862.13184	506.09314	137.73051	874.32086	480.53146	252.05057	917.18164	386.58401	112.22947	904.68915	343.76468	108.14941	855.19879	396.97281	110.37720	851.05420	352.18604	108.18575	807.81793	88.57929	157.89003	780.42310	120.11269	242.41965	855.60992	46.27941	209.89677	656.14142	86.14903	236.54980	631.38666	116.31278	182.37955	681.38806	61.81587	124.48097
865	3.45600	1144.57239	1010.09729	329.15262	984.41833	982.41522	408.20312	1133.05737	602.23462	453.50815	1138.49890	555.84100	436.01245	1080.81970	602.44330	449.45865	1088.92603	559.11346	438.80801	1144.08777	482.61325	417.96732	1137.51562	469.26794	299.99316	1239.22119	395.21378	423.98126	1250.81689	351.96143	427.66837	1180.40405	371.83997	426.78870	1200.06165	331.00439	429.53674	1303.38391	93.90725	354.07620	1278.16992	117.88137	265.51096	1368.61646	74.09370	310.74893	1190.83557	32.77885	376.64548	1133.05334	52.52373	314.39154	1175.97107	29.85530	255.12831	1132.52930	1005.65552	208.56178	971.54633	982.63391	159.39832	919.83813	625.48523	97.15983	903.56927	584.80505	103.29182	865.77063	646.98193	114.97466	853.06000	600.50464	117.31651	858.30896	504.45004	137.70491	871.27167	478.61496	251.96834	910.90863	384.24124	112.08160	897.55811	341.67038	108.05943	849.08392	395.80942	110.47584	844.42841	351.50589	108.13577	794.62720	88.27408	158.74089	769.45874	121.78976	244.21664	841.24011	45.06161	210.22534	643.22522	90.38129	237.76566	619.16064	121.07253	183.64360	667.26508	65.08238	125.57978
866	3.46000	1140.15161	1009.47559	328.57303	979.65051	981.74719	408.34378	1130.03674	602.27551	453.44531	1135.74231	555.86322	436.02325	1078.38000	602.41296	449.85437	1086.16504	558.71906	439.16022	1141.41235	482.25943	418.13950	1134.81311	469.24963	299.78210	1237.22986	395.67014	423.82993	1248.75159	352.21155	427.60010	1178.46851	371.80533	426.83435	1198.35352	331.12442	429.50851	1302.96838	94.50218	354.07669	1277.61975	118.26445	265.49466	1368.21924	75.12994	310.67068	1190.79272	32.74901	376.65326	1132.85059	52.65430	314.32581	1175.89954	29.92420	255.06726	1127.14026	1004.73840	208.09789	965.76544	981.87885	159.58553	916.18231	623.85956	96.84666	900.26447	583.13794	102.58536	862.29877	645.08093	114.99832	849.59375	598.71222	116.93426	854.46417	502.77448	137.54962	868.24835	476.67181	251.91043	904.62274	381.84964	112.02915	890.54089	339.70389	107.92487	843.12347	394.67737	110.45801	837.25317	350.17587	108.25884	782.01306	88.34896	159.43222	757.61035	122.40176	244.21672	827.59253	43.99716	210.85963	630.90247	94.59193	239.06252	607.45074	125.78605	184.98994	653.78723	68.80451	128.63925
867	3.46400	1135.22571	1008.60376	328.04404	974.89404	981.24933	407.68814	1126.44165	601.74536	452.93668	1132.97693	555.91882	436.02777	1075.11987	601.85870	450.12949	1083.29700	558.26807	439.40973	1138.73547	482.25345	418.14893	1131.48584	468.75439	300.17648	1235.14612	396.12042	423.65872	1246.93811	352.70209	427.51395	1176.46228	371.77783	426.88055	1196.73560	331.58905	429.46054	1302.56543	95.18374	354.03769	1277.01697	118.72601	265.45227	1367.96375	76.26562	310.58920	1190.76294	32.72081	376.67596	1132.77039	52.55334	314.46112	1175.82300	29.98092	255.01634	1121.65393	1003.77649	207.61522	960.13452	981.00592	160.15341	912.59375	622.40936	96.31012	896.83667	581.42090	101.89351	858.47736	642.97131	114.84734	846.20129	596.76685	116.38942	850.54205	501.12173	137.23557	865.10095	474.74677	251.78052	898.46222	379.45612	112.02129	883.56366	337.75888	107.82294	837.14709	393.60226	110.41537	830.61292	349.27875	108.15443	769.66425	89.25606	160.07603	746.55518	123.47363	245.11133	814.39117	43.11998	211.56641	619.43481	98.68009	240.45839	596.23712	130.21214	186.36748	641.12915	71.94901	129.96190
868	3.46800	1129.70483	1007.40100	327.63638	970.20502	980.59143	407.73227	1127.08545	604.16467	454.49860	1130.07605	555.86249	436.00092	1072.40527	601.66449	450.45776	1080.42737	557.99805	439.93027	1136.35315	482.27051	418.43552	1127.26050	467.05490	301.50034	1232.93408	396.59879	423.48346	1245.19434	353.46735	427.28687	1174.38013	371.75812	426.92740	1194.96118	331.72360	429.53992	1300.54504	94.64566	353.56717	1276.33557	119.15660	265.44907	1367.58545	77.24224	310.54013	1190.80750	32.76085	376.68466	1132.65833	52.47066	314.57681	1175.74133	30.02483	254.97610	1116.16931	1002.83191	207.11758	954.40369	980.13226	160.33147	908.79279	620.96375	95.82036	893.18195	579.88324	101.09380	854.57227	641.15173	114.52590	842.55951	594.96460	115.71150	846.56256	499.50757	136.79794	861.88165	473.03696	251.55952	892.31390	376.88483	112.11721	876.67773	335.88943	107.71638	831.40942	392.61301	110.29879	824.30341	348.57632	107.84192	757.82739	89.54612	160.86971	735.81921	124.47807	245.88823	801.74231	42.52400	212.37799	608.04156	103.14927	242.16975	585.50922	134.52135	187.76660	628.76208	75.11427	131.44966
